<svg width="866.33071" height="605.73993" xmlns="http://www.w3.org/2000/svg">

 <g>
  <title>Layer 1</title>
  <path id="svg_1" fill="#ffb8b8" d="m731.46849,420.65866a9.14581,9.14581 0 0 1 1.93088,-13.89051l-7.25159,-31.682l15.8187,5.91773l4.46105,29.1785a9.19542,9.19542 0 0 1 -14.959,10.47626l-0.00004,0.00002z"/>
  <path id="svg_2" fill="#000000" d="m730.37401,395.51385l-13.906,-26.88477l1.88062,-67.69726l0.89355,1.88281c1.041,2.19336 25.44019,53.84619 23.7,71.13819l2.78882,15.80224l-15.35699,5.75879z"/>
  <polygon id="svg_3" fill="#ffb8b8" points="721.307 594.201 732.458 594.201 737.762 551.192 721.305 551.193 721.307 594.201"/>
  <path id="svg_4" fill="#000000" d="m718.46295,590.56096l21.95908,-0.00089l0.00155,0a13.99379,13.99379 0 0 1 13.99352,13.99352l0,0.45476l-35.95371,0.00177l-0.00044,-14.44916z"/>
  <polygon id="svg_5" fill="#ffb8b8" points="611.134 585.727 621.877 588.714 638.511 548.699 622.655 544.29 611.134 585.727"/>
  <path id="svg_6" fill="#000000" d="m609.36886,581.45774l21.15648,5.88266l0.00149,0.00042a13.99378,13.99378 0 0 1 9.7326,17.23118l-0.12184,0.43813l-34.63966,-9.63139l3.87093,-13.921z"/>
  <path id="svg_7" fill="#212121" d="m710.18968,577.43426l-22.50366,-161.126l-48.60449,160.21487l-38.21692,-13.04981l54.77454,-214.53271l0.36035,-0.02539l57.38061,-3.99121l41.45679,219.48779l-44.64722,13.02246z"/>
  <path id="svg_8" fill="#9c8412" d="m704.23827,273.01505s-20.91878,-10.91415 -49.11366,-6.36659c0,0 -15.007,36.205 0,50.61758l4.0928,36.24085s38.19952,22.7378 50.93269,-3.63805l-1.819,-30.01391s9.09512,-14.39464 1.819,-24.93281a34.82081,34.82081 0 0 1 -5.91183,-21.90707z"/>
  <path id="svg_9" fill="#000000" d="m706.88841,437.85662l3.67163,-76.188l-10.39135,-90.63379l0.47705,-0.07227c13.63086,-2.05517 18.00268,21.42774 18.18213,22.42822l23.72583,134.14209l-35.66529,10.32375z"/>
  <path id="svg_10" fill="#000000" d="m660.63158,438.65057l-41.94336,-4.66016l0.011,-0.45849c0.14869,-6.20948 3.75879,-152.2041 13.87452,-162.54395c10.17553,-10.40137 29.37719,-5.90088 30.18969,-5.70312l0.40479,0.09765l-3.45142,61.77637l0.91478,111.4917z"/>
  <path id="svg_11" fill="#ffb8b8" d="m668.35678,351.39317a9.14584,9.14584 0 0 1 -11.90719,-7.409l-31.89489,-6.24893l11.83539,-12.04883l28.47343,7.7813a9.19542,9.19542 0 0 1 3.49326,17.92547l0,-0.00001z"/>
  <path id="svg_12" fill="#000000" d="m651.33666,344.07928l-10.39258,-2.23432c-15.34229,4.61425 -42.12219,-11.62989 -52.94593,-18.84522c-2.03662,-1.35742 -2.69726,-4.04736 -1.9635,-7.99365a23.30978,23.30978 0 0 1 8.567,-13.915l38.11975,-30.2251l9.62158,-1.60889l2.85791,16.19483l-24.28733,26.08633l35.75244,19.46l-5.32934,13.08102z"/>
  <path id="svg_13" fill="#000000" d="m647.22628,252.93822l0,-21a33.5,33.5 0 1 1 67,0l0,21a4.50508,4.50508 0 0 1 -4.5,4.5l-58,0a4.50507,4.50507 0 0 1 -4.5,-4.5z"/>
  <circle id="svg_14" fill="#ffb8b8" r="24.56103" cy="232.67051" cx="679.37983"/>
  <path id="svg_15" fill="#000000" d="m654.14473,232.57596a2.50023,2.50023 0 0 1 -0.5852,-1.99317l2.90942,-20.25976a2.50362,2.50362 0 0 1 1.41455,-1.91895c14.85034,-6.95019 29.90967,-6.959 44.76,-0.02637a2.51921,2.51921 0 0 1 1.42871,2.03614l1.94213,20.28611a2.49954,2.49954 0 0 1 -2.48877,2.73828l-4.92553,0a2.50966,2.50966 0 0 1 -2.26539,-1.44238l-2.12573,-4.55469a1.49989,1.49989 0 0 0 -2.84765,0.44824l-0.41993,3.3584a2.50359,2.50359 0 0 1 -2.48071,2.19043l-32.42649,0a2.50013,2.50013 0 0 1 -1.88941,-0.86228z"/>
  <rect id="svg_16" fill="#e6e6e6" height="343.11356" width="551" y="40.3663"/>
  <rect id="svg_17" fill="#fff" height="65.59524" width="100.91574" y="106.46612" x="36.94894"/>
  <rect id="svg_18" fill="#fff" height="65.59524" width="100.91574" y="106.46612" x="162.34439"/>
  <rect id="svg_19" fill="#fff" height="65.59524" width="100.91577" y="106.46612" x="287.73987"/>
  <rect id="svg_20" fill="#fff" height="65.59524" width="100.91577" y="106.46612" x="413.13531"/>
  <rect id="svg_21" fill="#fff" height="65.59523" width="100.91574" y="199.30861" x="36.94894"/>
  <rect id="svg_22" fill="#fff" height="65.59523" width="100.91574" y="199.30861" x="162.34439"/>
  <rect id="svg_23" fill="#fff" height="65.59523" width="100.91577" y="199.30861" x="287.73987"/>
  <rect id="svg_24" fill="#fff" height="65.59523" width="100.91577" y="199.30861" x="413.13531"/>
  <rect id="svg_25" fill="#fff" height="65.59525" width="100.91574" y="292.15109" x="36.94894"/>
  <rect id="svg_26" fill="#fff" height="65.59525" width="100.91574" y="292.15109" x="162.34439"/>
  <rect id="svg_27" fill="#fff" height="65.59525" width="100.91577" y="292.15109" x="287.73987"/>
  <rect id="svg_28" fill="#fff" height="65.59525" width="100.91577" y="292.15109" x="413.13531"/>
  <circle id="svg_29" fill="#fff" r="15.13736" cy="65.59524" cx="144.30951"/>
  <circle id="svg_30" fill="#fff" r="15.13734" cy="65.59524" cx="394.58057"/>
  <rect id="svg_31" fill="#e6e6e6" height="69.63187" width="12.10989" x="138.25458"/>
  <rect id="svg_32" fill="#e6e6e6" height="69.63187" width="12.10986" x="388.52563"/>
  <path id="svg_33" fill="#9c8412" d="m486.41393,139.26373a22.75657,22.75657 0 1 1 -3.52686,-12.19043a22.7566,22.7566 0 0 1 3.52686,12.19043z"/>
  <path id="svg_34" fill="#fff" d="m482.88707,127.07333l-22.46387,22.45975c-1.41186,-2.18579 -9.27765,-12.34394 -9.27765,-12.34394a31.82748,31.82748 0 0 1 3.21979,-2.84218l6.52259,8.69678l19.36853,-19.36856a22.72652,22.72652 0 0 1 2.63061,3.39815z"/>
  <path id="svg_35" fill="#9c8412" d="m235.62297,232.10623a22.75655,22.75655 0 1 1 -3.52685,-12.19043a22.7566,22.7566 0 0 1 3.52685,12.19043z"/>
  <path id="svg_36" fill="#fff" d="m232.09612,219.9158l-22.46387,22.45974c-1.41187,-2.18579 -9.27765,-12.34393 -9.27765,-12.34393a31.82748,31.82748 0 0 1 3.21979,-2.84222l6.52258,8.69677l19.36859,-19.36856a22.72613,22.72613 0 0 1 2.63056,3.3982z"/>
  <path id="svg_37" fill="#9c8412" d="m110.22752,232.10623a22.75667,22.75667 0 1 1 -3.52685,-12.19043a22.75667,22.75667 0 0 1 3.52685,12.19043z"/>
  <path id="svg_38" fill="#fff" d="m106.70067,219.9158l-22.46387,22.45974c-1.41186,-2.18579 -9.27765,-12.34393 -9.27765,-12.34393a31.82748,31.82748 0 0 1 3.21979,-2.84222l6.52258,8.69677l19.3686,-19.36856a22.72673,22.72673 0 0 1 2.63055,3.3982z"/>
  <path id="svg_39" fill="#3f3d56" d="m865.33069,605.73996l-381,0a1,1 0 0 1 0,-2l381,0a1,1 0 0 1 0,2z"/>
 </g>
</svg>